# xmcd
#
# Track frame offsets:
#	150
#	12769
#	32348
#	48264
#	62898
#	93564
#	154314
#	169014
#	188942
#	207692
#	224963
#	236963
#	251369
#	263577
#	280790
#
# Disc length: 4010 seconds
#
# Revision: 3
# Processed by: cddbd v1.5.2PL0 Copyright (c) Steve Scherf et al.
# Submitted via: audiograbber 1.83.01
#
DISCID=dc0fa80f
DTITLE=Various Artist - Liefde, brood en slaap
DYEAR=2007
DGENRE=Gospel
TTITLE0=Stefan van Maurik - Mijn ogen kijken op naar u (psalm 123)
TTITLE1=Kinga Bán - Adem om van u te zingen (psalm 145)
TTITLE2=Eline Flierman - Ik val niet uit zijn hand (psalm 16)
TTITLE3=Sergej Visser - Uw rust in mijn wereld (psalm 23)
TTITLE4=Arjen van Wijk - Als ik u roep (psalm 56)
TTITLE5=Timon Borgdorff - Geschiedenisles (psalm 78)
TTITLE6=Sergej Visser - Liefde, brood en slaap (psalm 127)
TTITLE7=Arjen van Wijk - Vroeg in de morgen (psalm 5)
TTITLE8=Kinga Bán - Veilige hoogte (psalm 46)
TTITLE9=Jurgen van Harskamp - Laat ze niet lachen (psalm 79)
TTITLE10=Rivelino Rigters - Geboorteplaats: Jeruzalem (psalm 87)
TTITLE11=Timon Borgdorff - De koning drinkt (psalm 110)
TTITLE12=Arjen van Wijk - Armenvol (psalm 126)
TTITLE13=Rivelino Rigters - Zegen de HEER (psalm 134)
TTITLE14=Sergej Visser - De handtekening van de HEER (psalm 8)
EXTD=
EXTT0=
EXTT1=
EXTT2=
EXTT3=
EXTT4=
EXTT5=
EXTT6=
EXTT7=
EXTT8=
EXTT9=
EXTT10=
EXTT11=
EXTT12=
EXTT13=
EXTT14=
PLAYORDER=
